<svg xmlns="http://www.w3.org/2000/svg" xmlns:xlink="http://www.w3.org/1999/xlink" width="16" height="16" viewBox="0 0 16 16">
  <defs>
    <style>
      path {
        fill: hsl(215 5% 15%);
      }

      @media (prefers-color-scheme: dark) {
        path {
          fill: hsl(215 5% 97.5%);
        }
      }
    </style>
  </defs>

  <path d="M5,40a3,3,0,0,1-3-3V29a3,3,0,0,1,3-3h8a3,3,0,0,1,3,3v8a3,3,0,0,1-3,3ZM3.5,29v8A1.5,1.5,0,0,0,5,38.5h8A1.5,1.5,0,0,0,14.5,37V31.5H9.25a1,1,0,0,1-1-1v-3H5A1.5,1.5,0,0,0,3.5,29Zm6.25,1H14.5V29A1.5,1.5,0,0,0,13,27.5H9.75Z" transform="translate(-1 -25)"/>

</svg>
